<?xml version="1.0" standalone="no"?><!DOCTYPE svg PUBLIC "-//W3C//DTD SVG 1.1//EN" "http://www.w3.org/Graphics/SVG/1.1/DTD/svg11.dtd"><svg class="icon" width="32px" height="32.00px" viewBox="0 0 1024 1024" version="1.1" xmlns="http://www.w3.org/2000/svg"><path d="M622.350441 511.969884L1001.117808 133.292865A78.120581 78.120581 0 0 0 945.945524 0c-20.840186 0-40.445621 8.131286-55.2024 22.888065L512.005873 401.625316 133.268622 22.888065C118.511843 8.131286 98.906408 0 78.066222 0 57.256152 0 37.650717 8.131286 22.893938 22.888065S0.005873 57.220164 0.005873 78.060349c0 20.840186 8.131286 40.445621 22.888065 55.2024L401.631189 511.969884 22.893938 890.707135c-14.756779 14.756779-22.888065 34.332098-22.888065 55.172284 0 20.840186 8.131286 40.445621 22.888065 55.2024S57.226036 1023.939768 78.066222 1023.939768c20.930533 0 40.535968-8.131286 55.2024-22.888065L511.975757 622.374684l378.737251 378.737251c14.756779 14.756779 34.332098 22.85795 55.2024 22.857949 20.870302 0 40.445621-8.131286 55.112052-22.888065 14.756779-14.756779 22.888065-34.332098 22.888065-55.172284 0-20.840186-8.131286-40.415505-22.888065-55.172284L622.350441 511.969884z" fill="#d81e06" /></svg>