<?xml version="1.0" standalone="no"?><!DOCTYPE svg PUBLIC "-//W3C//DTD SVG 1.1//EN" "http://www.w3.org/Graphics/SVG/1.1/DTD/svg11.dtd"><svg t="1716206622919" class="icon" viewBox="0 0 1024 1024" version="1.1" xmlns="http://www.w3.org/2000/svg" p-id="21502" xmlns:xlink="http://www.w3.org/1999/xlink" width="64" height="64"><path d="M949.6 360.6s-0.1 0-0.1-0.1L755.1 166.6c-15.6-25.3-43.4-42.4-75.4-42.4h-55.5c-16.2 0-29.7 11.6-32.7 27l-0.6 0.9v-1.2c-0.8 2-2 3.9-3.4 5.9-9.4 32.3-38.9 56-74.3 56-31 0-57.6-18.3-70.1-44.5l-0.4-0.3c-0.1-0.4-0.3-0.8-0.4-1.2-0.9-2-1.5-4.1-2.3-6.2-1.4-3.6-3-7.1-4.6-10.6v5.3h-0.2c-0.2-3.6-1-7.1-2.2-10.3-0.7-1.5-1.5-3-2.3-4.5-5.8-9.8-16.3-16.4-28.5-16.4-2 0-3.9 0.3-5.9 0.7-1-0.5-2.1-0.7-3.2-0.7-0.7 0-1.4 0.2-2.1 0.4v-0.4h-44.4c-28.9 0-54.3 14-70.6 35.3l-201.4 201s-0.1 0-0.1 0.1c-13 13-13 34 0 47l141.3 141c11.5 11.5 28.9 12.2 41.9 3.4v325.6h2.2c4.6 12.9 16.6 22.2 31.1 22.2h444.2c14.5 0 26.5-9.3 31.1-22.2h2.2v-324c12.7 7.2 28.9 5.9 39.7-4.9l141.3-141c13.1-13 13.1-34 0.1-47z" fill="#2c2c2c" p-id="21503"></path></svg>