<?xml version="1.0" standalone="no"?><!DOCTYPE svg PUBLIC "-//W3C//DTD SVG 1.1//EN" "http://www.w3.org/Graphics/SVG/1.1/DTD/svg11.dtd"><svg t="1716205549206" class="icon" viewBox="0 0 1152 1024" version="1.1" xmlns="http://www.w3.org/2000/svg" p-id="19248" xmlns:xlink="http://www.w3.org/1999/xlink" width="168.75" height="150"><path d="M874.670545 0C711.994182 0 597.329455 86.004364 597.329455 86.004364L597.329455 940.683636c0 0 114.664727-83.316364 277.329455-83.316364C1037.335273 857.367273 1152 940.683636 1152 940.683636L1152 96.756364C1152 96.756364 1037.335273 0 874.670545 0zM1066.670545 731.042909l-384 0 0-43.008 384 0L1066.670545 731.042909zM1066.670545 645.038545l-384 0 0-42.996364 384 0L1066.670545 645.038545zM1066.670545 559.034182l-384 0 0-42.996364 384 0L1066.670545 559.034182zM1066.670545 473.029818l-384 0 0-42.996364 384 0L1066.670545 473.029818zM1066.670545 387.025455l-384 0 0-43.008 384 0L1066.670545 387.025455zM1066.670545 301.021091l-384 0 0-43.008 384 0L1066.670545 301.021091zM1066.670545 215.016727l-384 0 0-42.996364 384 0L1066.670545 215.016727zM0 86.004364 0 940.683636c0 0 114.664727-83.316364 277.329455-83.316364 162.664727 0 277.329455 83.316364 277.329455 83.316364L554.658909 96.756364c0 0-114.664727-96.756364-277.329455-96.756364C114.664727 0 0 86.004364 0 86.004364zM85.341091 172.020364 256 172.020364 256 387.025455 85.341091 387.025455 85.341091 172.020364zM469.341091 731.042909l-384 0 0-43.008 384 0L469.341091 731.042909zM469.341091 645.038545l-384 0 0-42.996364 384 0L469.341091 645.038545zM469.341091 559.034182l-384 0 0-42.996364 384 0L469.341091 559.034182zM469.341091 473.029818l-384 0 0-42.996364 384 0L469.341091 473.029818zM298.670545 172.020364l170.670545 0 0 42.996364L298.670545 215.016727 298.670545 172.020364zM298.670545 258.013091l170.670545 0 0 43.008L298.670545 301.021091 298.670545 258.013091zM298.670545 344.017455l170.670545 0 0 43.008L298.670545 387.025455 298.670545 344.017455zM640 946.059636c0 0 263.994182-88.692364 469.329455 77.940364 0-2.688 0-77.940364 0-77.940364C869.329455 811.671273 640 946.059636 640 946.059636zM42.670545 946.059636c0 0 0 75.252364 0 77.940364C248.005818 857.367273 512 946.059636 512 946.059636S282.670545 811.671273 42.670545 946.059636z" fill="#785c46" p-id="19249" data-spm-anchor-id="a313x.search_index.0.i30.beb23a81ex3YRL" class="selected"></path></svg>