<?xml version="1.0" standalone="no"?><!DOCTYPE svg PUBLIC "-//W3C//DTD SVG 1.1//EN" "http://www.w3.org/Graphics/SVG/1.1/DTD/svg11.dtd"><svg t="1716384314641" class="icon" viewBox="0 0 1024 1024" version="1.1" xmlns="http://www.w3.org/2000/svg" p-id="38815" xmlns:xlink="http://www.w3.org/1999/xlink" width="64" height="64"><path d="M939.752727 168.769164C873.122909 20.824436 145.240436 43.701527 70.288291 152.1664c-101.822836 114.059636-78.941091 750.4384 33.442909 814.252218 162.127127 75.529309 569.739636 75.529309 802.583273-15.327418 143.574109-90.084073 85.559855-705.661673 33.438254-782.322036zM132.328727 516.654545h238.033455v69.818182H132.328727v-69.818182z m494.014837 330.472728H132.347345v-69.818182h493.996219v69.818182z m69.827491-130.327273H132.352v-69.818182h563.819055v69.818182z m130.955636-373.955491l-200.201309 175.057455a104.569018 104.569018 0 0 1-11.343127 9.025163l1.154327 1.154328-67.570037 19.362909H446.231273v-68.859346l5.394618-49.152a104.280436 104.280436 0 0 1 16.095418-44.986182l1.419636-3.965672 0.684219 0.684218a105.160145 105.160145 0 0 1 14.475636-16.658618l200.201309-175.048146c42.356364-39.391418 108.618473-36.985018 148.009891 5.376 39.382109 42.356364 36.975709 108.623127-5.385309 148.009891z" fill="#2c2c2c" p-id="38816"></path></svg>