<?xml version="1.0" standalone="no"?><!DOCTYPE svg PUBLIC "-//W3C//DTD SVG 1.1//EN" "http://www.w3.org/Graphics/SVG/1.1/DTD/svg11.dtd"><svg t="1718027204468" class="icon" viewBox="0 0 1024 1024" version="1.1" xmlns="http://www.w3.org/2000/svg" p-id="8883" width="280" height="280" xmlns:xlink="http://www.w3.org/1999/xlink"><path d="M603.136 832.512c-31.744 13.312-75.776 14.336-109.568 17.408-45.056 3.072-92.16 2.048-136.192-8.192-83.968-18.432-164.864-64.512-215.04-135.168-105.472-147.456-75.776-376.832 56.32-495.616 133.12-119.808 315.392-162.816 484.352-97.28 71.68 27.648 136.192 73.728 186.368 134.144 59.392 72.704 80.896 155.648 72.704 248.832-8.192 95.232-61.44 185.344-134.144 246.784-20.48 17.408-28.672 19.456-36.864 45.056-7.168 20.48-15.36 31.744-32.768 45.056-46.08 30.72-88.064 24.576-135.168-1.024z m34.816 0c26.624 11.264 53.248 16.384 77.824 0 18.432-12.288 43.008-34.816 43.008-58.368-8.192 1.024-31.744 12.288-38.912 7.168-14.336-11.264 22.528-16.384 27.648-18.432 33.792-13.312 66.56-37.888 92.16-63.488 55.296-58.368 86.016-139.264 94.208-218.112C952.32 312.32 815.104 175.104 668.672 118.784c-153.6-59.392-335.872-15.36-456.704 94.208C87.04 325.632 51.2 535.552 138.24 679.936c41.984 69.632 125.952 119.808 202.752 144.384 43.008 13.312 90.112 16.384 135.168 14.336 24.576-1.024 49.152-3.072 73.728-7.168 7.168-1.024 20.48 0 26.624-5.12 17.408-12.288 1.024-7.168 4.096-26.624 13.312-1.024 39.936 29.696 57.344 32.768zM722.944 879.616c13.312-61.44 120.832-67.584 110.592 1.024-9.216 56.32-118.784 61.44-110.592-1.024z m66.56-39.936c-52.224-7.168-77.824 67.584-18.432 71.68 52.224 4.096 74.752-67.584 18.432-71.68zM837.632 925.696c2.048-50.176 84.992-46.08 82.944 2.048-1.024 46.08-89.088 39.936-82.944-2.048z m43.008 25.6c39.936-3.072 34.816-56.32-3.072-51.2-32.768 3.072-28.672 47.104 3.072 51.2z" fill="#2D2D2D" p-id="8884"></path></svg>