<?xml version="1.0" standalone="no"?><!DOCTYPE svg PUBLIC "-//W3C//DTD SVG 1.1//EN" "http://www.w3.org/Graphics/SVG/1.1/DTD/svg11.dtd"><svg t="1716879203009" class="icon" viewBox="0 0 1024 1024" version="1.1" xmlns="http://www.w3.org/2000/svg" p-id="8243" width="150" height="150" xmlns:xlink="http://www.w3.org/1999/xlink"><path d="M71.9945134 62.76442345h855.48750029c41.42307657 0 75.12115342 33.70096143 75.12115426 75.12115341v541.19711514c0 41.42307657-33.69807685 75.11826885-75.12115426 75.11826972h-148.33269228c-24.09807657 0-43.69615402 19.59230743-43.69615401 43.69038486v163.35l-229.26346084-196.52307715a43.6788466 43.6788466 0 0 0-28.42788515-10.51730771H71.99162881C30.57143682 754.19807715-3.12664002 720.50288486-3.12664002 679.07980742V137.88269228C-3.12664002 96.46250029 30.57143682 62.76442345 71.9945134 62.76442345zM28.30412938 679.07980742c0 24.09230743 19.59519199 43.69615402 43.69038402 43.69615401h405.77019253a75.04038455 75.04038455 0 0 1 48.87692318 18.08653886l177.38942347 152.02788398v-95.0048077c0-41.40865371 33.70096143-75.1153843 75.1211534-75.11538426h148.33269227c24.09519199 0 43.69038489-19.60096114 43.69038483-43.69615403V137.88269228c0-24.10096114-19.59807657-43.69903857-43.69038483-43.69903855H71.9945134c-24.08942284 0-43.69038489 19.59807657-43.69038402 43.69903855v541.19711514z m0 0" p-id="8244"></path></svg>