<?xml version="1.0" standalone="no"?><!DOCTYPE svg PUBLIC "-//W3C//DTD SVG 1.1//EN" "http://www.w3.org/Graphics/SVG/1.1/DTD/svg11.dtd"><svg t="1719827631605" class="icon" viewBox="0 0 1024 1024" version="1.1" xmlns="http://www.w3.org/2000/svg" p-id="7529" width="50" height="50" xmlns:xlink="http://www.w3.org/1999/xlink"><path d="M0 0h1024v1024H0V0z" fill="#2c2c2c" opacity=".01" p-id="7530" data-spm-anchor-id="a313x.search_index.0.i23.72f13a81ilGTmD" class="selected"></path><path d="M122.402133 423.7312a68.266667 68.266667 0 0 1 0-96.529067l204.8-204.8A68.266667 68.266667 0 0 1 443.733333 170.666667v682.666666a68.266667 68.266667 0 1 1-136.533333 0V335.4624l-88.2688 88.2688a68.266667 68.266667 0 0 1-96.529067 0z" fill="#2c2c2c" p-id="7531" data-spm-anchor-id="a313x.search_index.0.i25.72f13a81ilGTmD" class="selected"></path><path d="M901.597867 600.2688a68.266667 68.266667 0 0 1 0 96.529067l-204.8 204.8A68.266667 68.266667 0 0 1 580.266667 853.333333V170.666667a68.266667 68.266667 0 1 1 136.533333 0v517.870933l88.2688-88.2688a68.266667 68.266667 0 0 1 96.529067 0z" fill="#5e5d5d" p-id="7532" data-spm-anchor-id="a313x.search_index.0.i24.72f13a81ilGTmD" class=""></path></svg>