<?xml version="1.0" standalone="no"?><!DOCTYPE svg PUBLIC "-//W3C//DTD SVG 1.1//EN" "http://www.w3.org/Graphics/SVG/1.1/DTD/svg11.dtd"><svg t="1716442600848" class="icon" viewBox="0 0 1057 1024" version="1.1" xmlns="http://www.w3.org/2000/svg" p-id="15561" width="82.578125" height="80" xmlns:xlink="http://www.w3.org/1999/xlink"><path d="M58.150023 753.382065c85.980083 161.291105 255.099571 264.348293 443.674406 270.326931 188.607866 5.945607 367.96701-86.046146 470.528731-241.391644 102.561721-155.345498 112.801377-350.42747 26.788262-511.718575C913.161339 109.340703 744.041851 6.283516 555.467016 0.271846c-188.607866-5.945607-367.96701 86.046146-470.52873 241.391644-102.561721 155.345498-112.801377 350.42747-26.788263 511.718575z" fill="#E29D2C" p-id="15562"></path><path d="M150.108745 878.834372c129.349983 125.188058 317.858756 174.07416 494.542376 128.259955 176.683621-45.814205 314.687765-179.359144 362.021403-350.361407 47.333638-170.969232-3.204022-353.400273-132.554004-478.5553-129.316952-125.188058-317.825725-174.07416-494.509346-128.259955C202.925553 95.73187 64.888378 229.276809 17.587771 400.279072c-47.333638 170.969232 3.204022 353.400273 132.554005 478.5553z" fill="#F6D75A" p-id="15563"></path><path d="M99.240774 528.505996a396.373799 396.373799 0 1 0 792.747598 0 396.373799 396.373799 0 0 0-792.747598 0z" fill="#C1902C" p-id="15564"></path><path d="M165.303073 528.505996c0 200.664236 170.077391 363.342649 379.858225 363.342649S925.019522 729.170232 925.019522 528.505996 754.942131 165.163347 545.161298 165.163347 165.303073 327.84176 165.303073 528.505996z" fill="#D8A029" p-id="15565"></path><path d="M198.334223 156.013718l328.759036 865.416128a496.458183 496.458183 0 0 0 251.400082-39.901629L418.189557 33.038747A485.227592 485.227592 0 0 0 198.334223 156.013718z m792.747599 506.103279L792.894922 112.379569a500.025548 500.025548 0 0 0-136.781992-68.869947c-4.756486-1.552464-9.546002-2.642492-14.302488-4.062832l280.104152 776.859615a504.848095 504.848095 0 0 0 63.816181-134.800123c1.981869-6.441074 3.633426-12.882148 5.351047-19.389285z" fill="#FBDE65" p-id="15566"></path><path d="M528.645723 452.369195c9.77722-17.506509 18.629569-33.88996 28.175571-49.810974a13.344585 13.344585 0 0 1 9.512971-5.780451c43.270806-0.363343 86.541613-0.396374 129.812419-0.198187 24.443051 0.099093 38.382196 25.00458 26.226733 47.036358-22.362088 40.595283-45.08752 80.926317-67.713857 121.389476-32.700838 58.531198-65.533801 117.029364-98.168578 175.626624-13.939145 25.103674-41.355 25.599141-55.393238 0.59456a230410.437843 230410.437843 0 0 1-165.651217-296.124259c-13.080335-23.386054 0.825779-48.489728 26.821293-48.55579 42.345934-0.099093 84.7249 0.099093 127.070834-0.165156 5.780451-0.033031 9.116597 1.618526 11.957276 6.936542 8.588099 16.119201 17.737728 31.941122 27.316761 49.051257zM528.645723 657.558699c-2.0149-3.501302-3.402208-5.846514-4.723455-8.257788-39.406162-70.488474-78.779293-141.04301-118.284548-211.498453-1.552464-2.741585-4.0298-6.804417-6.308949-6.936541-10.834217-0.759716-21.701465-0.330311-34.253303-0.330312l163.504192 292.391739 163.504192-292.523863c-11.230591 0-20.479313-0.594561-29.59591 0.29728a15.062204 15.062204 0 0 0-10.239656 6.275918c-13.476709 23.154836-26.42492 46.706046-39.472225 70.092101L528.645723 657.558699zM528.645723 590.208184l89.283198-159.738641c-12.882148 0-24.145771-0.264249-35.343331 0.231218-2.31218 0.099093-5.185891 2.57643-6.507136 4.789517-5.516202 9.083566-10.569968 18.497444-15.78889 27.812228l-31.544748 56.318111c-3.17099-5.417109-5.681358-9.579033-8.0596-13.807021-12.981242-23.121805-25.86339-46.24361-38.877664-69.299353-1.255184-2.246118-3.336146-5.582264-5.152859-5.648326-11.957276-0.495467-23.947584-0.264249-37.3252-0.264249L528.645723 590.208184z" fill="#C18F2B" p-id="15567"></path><path d="M528.645723 419.338045c9.77722-17.506509 18.629569-33.88996 28.175571-49.810974a13.344585 13.344585 0 0 1 9.512971-5.780451c43.270806-0.363343 86.541613-0.396374 129.812419-0.198187 24.443051 0.099093 38.382196 25.00458 26.226733 47.036358-22.362088 40.595283-45.08752 80.926317-67.713857 121.389476-32.700838 58.531198-65.533801 117.029364-98.168578 175.626624-13.939145 25.103674-41.355 25.599141-55.393238 0.594561a230410.437843 230410.437843 0 0 1-165.651217-296.12426c-13.080335-23.386054 0.825779-48.489728 26.821293-48.55579 42.345934-0.099093 84.7249 0.099093 127.070834-0.165156 5.780451-0.033031 9.116597 1.618526 11.957276 6.936542 8.588099 16.119201 17.737728 31.941122 27.316761 49.051257zM528.645723 624.56058c-2.0149-3.534333-3.402208-5.879545-4.723455-8.257788-39.406162-70.521505-78.779293-141.04301-118.284548-211.531484-1.552464-2.741585-4.0298-6.804417-6.308949-6.936541-10.834217-0.726685-21.701465-0.330311-34.253303-0.330312l163.504192 292.391739 163.504192-292.523863c-11.230591 0-20.479313-0.594561-29.59591 0.29728a15.062204 15.062204 0 0 0-10.239656 6.275919c-13.476709 23.154836-26.42492 46.706046-39.472225 70.125131L528.645723 624.56058zM528.645723 557.177034l89.283198-159.70561c-12.882148 0-24.145771-0.264249-35.343331 0.198187-2.31218 0.099093-5.185891 2.609461-6.507136 4.789517-5.516202 9.116597-10.569968 18.497444-15.78889 27.812228l-31.544748 56.318111c-3.17099-5.417109-5.681358-9.579033-8.0596-13.77399-12.981242-23.121805-25.86339-46.24361-38.877664-69.299352-1.255184-2.246118-3.336146-5.615295-5.152859-5.681358-11.957276-0.495467-23.947584-0.264249-37.3252-0.264249L528.645723 557.243096z" fill="#F6D75A" p-id="15568"></path><path d="M339.938763 159.151677a29.00135 29.00135 0 0 0-18.827755 15.656766c-6.30895 8.125663-8.257787 17.605603-10.008439 27.085542-1.651557 9.248722-2.741585 18.6626-4.227987 29.331662-1.849744-16.185263-3.402208-31.181406-8.125663-45.64905 0.759716-1.321246 0.066062-2.047931-1.222152-2.576429l-1.387309-3.13796a79.902352 79.902352 0 0 1-0.561529-1.056996l-2.510368-4.789517c-0.495467-3.633426-2.840679-6.011669-6.34198-7.597165a12.287588 12.287588 0 0 0-9.18266-6.375011l-1.486402-0.825779a19.851721 19.851721 0 0 0-13.873083-5.119828 15.22736 15.22736 0 0 0-1.056997-0.231218 11.230591 11.230591 0 0 0-8.191725-1.783683l-2.31218-0.330311a0.891841 0.891841 0 0 0-0.85881-0.132125l-0.165156-0.033031a14.566737 14.566737 0 0 0-9.446909-1.651557L237.971603 149.770831c-1.486402-1.486402-3.633426-0.528498-5.251953-1.255184-2.906741-1.255184-0.363343-1.71762 0.627592-2.345211l2.180056-0.231218c1.321246 0.594561 2.477336 0.495467 3.534333-0.429405 9.612065-1.387308 19.224129-2.807648 28.505883-5.582265 1.981869-0.594561 3.666458-1.783682 5.483171-2.708554 8.224756-3.303115 15.854952-7.16776 18.431381-15.854952 6.176825-4.954672 7.46504-11.990307 9.18266-18.629569A266.231068 266.231068 0 0 0 306.775489 66.069897c2.180056 10.669061 2.708554 21.470247 5.318015 32.007184 2.113994 8.489006 4.558299 16.94498 9.77722 24.41002 5.714389 8.257787 14.170363 13.443678 24.145771 16.812855 13.146398 4.393143 26.986449 5.549233 40.694376 7.266853 2.840679 0.330311 5.648327 0.891841 9.810252 1.585496-15.359485 1.189121-29.397723 2.642492-43.006557 5.846513-4.657392 1.123059-9.678127 2.113994-13.575803 5.152859z" fill="#FBFAF4" p-id="15569"></path></svg>