<?xml version="1.0" standalone="no"?><!DOCTYPE svg PUBLIC "-//W3C//DTD SVG 1.1//EN" "http://www.w3.org/Graphics/SVG/1.1/DTD/svg11.dtd"><svg t="1719824604643" class="icon" viewBox="0 0 1024 1024" version="1.1" xmlns="http://www.w3.org/2000/svg" p-id="8837" width="50" height="50" xmlns:xlink="http://www.w3.org/1999/xlink"><path d="M511.999803 1023.999212a510.187719 510.187719 0 0 1-362.022967-149.976442A510.187719 510.187719 0 0 1 0.000394 511.999803a510.187719 510.187719 0 0 1 149.976442-362.022967A510.187719 510.187719 0 0 1 511.999803 0.000394a510.187719 510.187719 0 0 1 362.022967 149.976442A510.187719 510.187719 0 0 1 1023.999212 511.999803a510.227104 510.227104 0 0 1-149.976442 362.022967A510.187719 510.187719 0 0 1 511.999803 1023.999212z m302.906727-169.708112a58.761778 58.761778 0 0 0 0-83.101442L257.890558 214.134301a58.801163 58.801163 0 1 0-83.101443 83.140827L731.765703 854.2911a58.801163 58.801163 0 0 0 83.101443 0z" fill="#445763" p-id="8838"></path></svg>