<?xml version="1.0" standalone="no"?><!DOCTYPE svg PUBLIC "-//W3C//DTD SVG 1.1//EN" "http://www.w3.org/Graphics/SVG/1.1/DTD/svg11.dtd"><svg t="1719825844199" class="icon" viewBox="0 0 1024 1024" version="1.1" xmlns="http://www.w3.org/2000/svg" p-id="53659" width="35" height="35" xmlns:xlink="http://www.w3.org/1999/xlink"><path d="M830.068221 482.115534a56.539877 56.539877 0 0 0-56.539877 56.539877v424.04908a56.539877 56.539877 0 0 0 56.539877 56.539877h0.018846a56.414233 56.414233 0 0 0 43.171338-20.027681l130.707632-103.838626a50.666012 50.666012 0 0 0 6.866454-72.747975 54.881374 54.881374 0 0 0-75.713178-7.149153l-48.492368 38.522503V538.655411a56.539877 56.539877 0 0 0-56.539878-56.539877h-0.018846z" fill="#2c2c2c" p-id="53660"></path><path d="M715.29227 4.26562a56.539877 56.539877 0 0 1 56.539877 56.539877v31.411043h75.386503c97.141791 0 175.90184 78.753767 175.901841 175.90184v157.652025h-113.079755v-0.59681h-791.558282v395.779141c0 47.914405 38.321472 86.882945 85.984589 87.925792l1.960049 0.025128h181.053252a56.539877 56.539877 0 1 1 0 113.079755H181.30454c-97.141791 0-175.90184-78.760049-175.901841-175.90184v-577.963191c0-97.148074 78.760049-175.90184 175.901841-175.90184h75.386503v-31.411043a56.539877 56.539877 0 0 1 113.079755 0v31.411043h288.981595v-31.411043a56.539877 56.539877 0 0 1 56.539877-56.539877z m-232.441718 709.88957a56.539877 56.539877 0 1 1 0 113.079755h-207.312883a56.539877 56.539877 0 1 1 0-113.079755h207.312883z m157.055215-226.159509a56.539877 56.539877 0 1 1 0 113.079755h-364.368098a56.539877 56.539877 0 0 1 0-113.079755h364.368098z m-383.214724-282.699387h-50.257669c-47.920687 0-86.882945 38.321472-87.932073 85.984589l-0.025129 1.966332v18.846625h791.558282v-18.846625c0-48.574037-39.376883-87.95092-87.95092-87.950921h-50.257669v12.564418a56.539877 56.539877 0 1 1-113.079755 0v-12.564418h-288.981595v12.564418a56.539877 56.539877 0 0 1-113.079754 0v-12.564418z" fill="#2c2c2c" p-id="53661"></path></svg>