<?xml version="1.0" standalone="no"?><!DOCTYPE svg PUBLIC "-//W3C//DTD SVG 1.1//EN" "http://www.w3.org/Graphics/SVG/1.1/DTD/svg11.dtd"><svg t="1716384207601" class="icon" viewBox="0 0 1057 1024" version="1.1" xmlns="http://www.w3.org/2000/svg" p-id="34997" xmlns:xlink="http://www.w3.org/1999/xlink" width="66.0625" height="64"><path d="M921.965037 43.401481C660.868741-8.732444 399.781926-13.805037 138.69037 28.174222 96.175407 42.55763 54.859852 86.257778 45.492148 130.958222a2176.986074 2176.986074 0 0 0-16.744296 92.487111c334.383407-36.759704 668.335407-33.08563 1001.856 11.026963a2116.148148 2116.148148 0 0 0-16.156445-88.912592c-9.045333-42.917926-50.010074-86.362074-92.48237-102.158223zM1038.511407 288.715852c-338.787556-35.356444-678.110815-38.300444-1017.955555-8.836741-26.742519 203.297185-23.61837 406.637037 9.367704 610.043259 8.443259 49.810963 58.273185 99.143111 108.050963 107.169186 261.560889 40.291556 523.126519 35.209481 784.692148-15.260445 49.796741-10.04563 99.252148-59.339852 107.325629-107.07437 31.530667-195.290074 34.37037-390.637037 8.519111-586.040889zM176.218074 404.423111c57.799111-8.011852 115.598222-7.210667 173.397333 2.403556 13.89037 40.078222 15.070815 80.142222 3.536593 120.187259-60.155259 10.002963-120.315259 10.837333-180.470519 2.49363-12.055704-41.709037-10.875259-83.403852 3.536593-125.084445z m181.902222 374.177185c-60.155259 10.007704-120.315259 10.842074-180.470518 2.498371-12.055704-41.723259-10.875259-83.422815 3.536592-125.108148a572.22163 572.22163 0 0 1 173.397334 2.408296c13.895111 40.087704 15.070815 80.151704 3.536592 120.201481z m94.558815-374.177185c57.799111-8.011852 115.598222-7.210667 173.397333 2.403556 13.895111 40.078222 15.075556 80.142222 3.536593 120.187259-60.150519 10.002963-120.310519 10.837333-180.465778 2.49363-12.060444-41.709037-10.88-83.403852 3.531852-125.084445z m181.892741 374.177185c-60.155259 10.007704-120.310519 10.842074-180.465778 2.498371-12.055704-41.723259-10.875259-83.422815 3.536593-125.108148a572.188444 572.188444 0 0 1 173.392592 2.408296c13.895111 40.087704 15.075556 80.151704 3.536593 120.201481z m271.506963-251.58637c-60.150519 10.002963-120.315259 10.837333-180.465778 2.49363-12.055704-41.709037-10.88-83.403852 3.536593-125.084445 57.79437-8.011852 115.593481-7.210667 173.392592 2.403556 13.895111 40.078222 15.080296 80.142222 3.536593 120.187259z" fill="#2c2c2c" p-id="34998" data-spm-anchor-id="a313x.search_index.0.i24.3d313a81NAKqwf" class="selected"></path></svg>