<?xml version="1.0" standalone="no"?><!DOCTYPE svg PUBLIC "-//W3C//DTD SVG 1.1//EN" "http://www.w3.org/Graphics/SVG/1.1/DTD/svg11.dtd"><svg t="1716205008790" class="icon" viewBox="0 0 1131 1024" version="1.1" xmlns="http://www.w3.org/2000/svg" p-id="12655" width="165.673828125" height="150" xmlns:xlink="http://www.w3.org/1999/xlink"><path d="M629.130485 994.653817C344.62833 994.653817 42.596374 906.485417 25.975527 872.20492c-12.985037-25.970074-7.531321-76.092315 10.907431-105.9579a54.537154 54.537154 0 0 1 46.096881-28.956632 236.847071 236.847071 0 0 1 80.637078 19.088004c8.829825-22.723814 29.605884-59.86102 72.716206-122.189196-44.019275-67.00279-14.02384-161.923409 6.102967-209.578493-37.137205-1.817905-99.854933-19.217854-148.41897-106.607152a92.583312 92.583312 0 0 1-6.492518-88.428101c29.216333-61.419224 129.850368-89.466903 167.506974-98.037027 3.246259-30.774537 17.65965-98.426579 81.546031-111.151915a93.362414 93.362414 0 0 1 18.308902-1.947756c49.213289 0 73.625159 42.850621 82.065432 73.105757 54.926706 17.7895 89.596754 47.005833 102.971342 86.999747 24.54172 72.975907-33.761096 151.79508-36.228253 155.171189-38.95511 58.952067-11.816383 88.947502-5.064164 94.920619a360.594471 360.594471 0 0 0 142.835404 25.970073 607.44002 607.44002 0 0 0 116.865331-11.816383c9.608927-37.916307 44.538676-144.133908 112.450419-144.133908a71.677403 71.677403 0 0 1 32.073041 8.050723c84.79229 42.33122 31.293939 266.452955 12.985036 335.013948C938.174361 666.002536 960.898175 722.617296 973.883212 759.624651a163.611463 163.611463 0 0 1 44.538676-6.492518A69.989348 69.989348 0 0 1 1077.763506 779.102206c28.17753 36.747654 12.985037 96.868374 11.037281 103.880295a18.438752 18.438752 0 0 1-8.570124 11.167131C962.196679 960.892721 810.6613 994.653817 629.130485 994.653817zM365.664089 796.891707a1051.787979 1051.787979 0 0 0 223.212782 24.67157 789.360385 789.360385 0 0 0 201.13822-23.892468l-28.17753-84.66244a406.431651 406.431651 0 0 1-147.380167 23.502917 945.050976 945.050976 0 0 1-210.097895-26.749176z" fill="#FFFFFF" p-id="12656"></path><path d="M354.367107 36.747654c55.056556 0 66.483388 69.210246 66.483389 69.210246 189.451687 54.147603 67.781892 216.590413 67.781892 216.590413-54.147603 81.15648 0 121.799645 0 121.799645a381.110829 381.110829 0 0 0 152.704032 28.17753 603.284809 603.284809 0 0 0 131.538423-14.673091S805.077734 316.445346 870.78202 316.445346a53.238651 53.238651 0 0 1 23.892467 6.102967c81.15648 40.643165 0 324.625919 0 324.62592 27.008876 12.985037 67.652042 135.304083 67.652042 135.304083a167.896525 167.896525 0 0 1 56.095359-11.816383c81.28633 0 51.940147 106.607152 51.940147 106.607151-128.941415 73.625159-287.618565 98.81613-441.49125 98.81613-298.655846 0-578.353538-94.401217-587.183363-112.320568-12.985037-27.008876 0-108.295207 40.643165-108.295206s94.790768 27.008876 94.790768 27.008876c-12.985037-12.985037 81.15648-148.938372 81.15648-148.938372C190.885494 552.643165 272.691226 403.834644 272.691226 403.834644a93.232564 93.232564 0 0 1-23.373066 2.597007c-32.332742 0-92.193761-12.985037-139.069744-97.257925C41.947122 187.24423 272.691226 146.601065 272.691226 146.601065S272.691226 51.940147 339.694016 38.95511a74.663961 74.663961 0 0 1 14.673091-1.558204m259.700736 681.324879a939.597261 939.597261 0 0 1-220.745625-30.125285l-54.147604 121.799645a1075.680446 1075.680446 0 0 0 249.182856 30.125285c140.368248 0 224.641136-30.125285 224.641136-30.125285L772.874843 688.206949c-45.707329 22.334263-102.32209 29.865585-158.417449 29.865585M354.367107 0a111.931017 111.931017 0 0 0-21.944712 2.207456c-40.773015 8.180573-71.677403 37.916307-86.869896 83.623637A203.085975 203.085975 0 0 0 238.151028 116.865331c-47.005833 11.816383-137.64139 42.33122-167.636825 105.178798A110.502663 110.502663 0 0 0 77.915674 326.963226c43.240172 77.910221 97.907177 104.789247 138.939894 112.96982-18.438752 51.940147-35.968552 130.889171-2.207456 193.606898-8.959675 12.985037-20.905909 31.423789-32.592443 50.252093s-20.905909 34.410347-28.30738 49.083439a226.588892 226.588892 0 0 0-70.6386-14.153691 72.196804 72.196804 0 0 0-61.808775 37.656607C-1.29305 792.087243-6.746765 848.961704 8.965129 880.385493c6.102967 12.205935 14.932792 22.334263 74.27441 43.370023a1395.891453 1395.891453 0 0 0 135.304084 38.95511A1813.620086 1813.620086 0 0 0 629.130485 1012.832868c184.647223 0 339.299011-34.929749 459.670302-103.880294a36.747654 36.747654 0 0 0 17.270099-22.334263c2.077606-7.661172 19.347705-75.832615-14.15369-119.592189a87.778849 87.778849 0 0 0-73.625158-33.371544 160.754755 160.754755 0 0 0-32.852144 3.63581A402.53614 402.53614 0 0 0 935.577353 636.266802a1194.623383 1194.623383 0 0 0 25.970074-131.668273c15.971595-119.98174 0-190.490489-50.511793-215.42176a89.856454 89.856454 0 0 0-40.383465-9.998478c-74.663961 0-112.96982 97.387776-127.642911 146.730915a590.429622 590.429622 0 0 1-101.802688 9.219376 347.349734 347.349734 0 0 1-132.187675-22.074562c-6.232818-7.401471-17.399949-28.437231 9.738778-69.469947a269.179812 269.179812 0 0 0 28.696931-51.940147 168.805478 168.805478 0 0 0 9.479077-119.332488C542.39044 129.201116 506.421888 97.128075 451.105631 77.131118 438.769846 42.46107 409.293813 0 354.367107 0z m37.267056 783.517119l23.243216-51.940147a952.971849 952.971849 0 0 0 199.450164 23.762617 452.398681 452.398681 0 0 0 135.823485-18.308902L766.122623 784.555922a806.370784 806.370784 0 0 1-177.375602 18.568602 1025.817905 1025.817905 0 0 1-197.112858-19.607405z" p-id="12657"></path><path d="M950.120594 804.293178s-70.249049-158.287598-94.920618-170.623383c0 0 112.96982-246.715699 38.95511-283.073802s-99.725082 142.056302-99.725082 142.056302-159.975653 13.764139-264.375349-10.388029a115.307127 115.307127 0 0 1-86.740046-80.766929 92.713163 92.713163 0 0 1 12.985037-77.910221S596.148492 189.581537 423.447503 140.238397c0 0-12.985037-74.01471-74.01471-61.678925s-61.678925 98.686279-61.678924 98.68628S77.915674 214.253107 139.724449 324.625919c44.408826 63.49683 161.274157 63.49683 161.274157 63.49683s-74.663961 172.700989-12.985037 246.715699c0 0-103.880294 155.820441-90.895257 168.805478a302.161806 302.161806 0 0 0-77.910221-12.985037A46.746132 46.746132 0 0 0 77.915674 857.012427c12.985037 24.67157 617.698199 209.578494 963.100178 12.205935 0 0 12.985037-77.910221-90.895258-64.925184zM297.492646 833.639361l75.313213-162.962212s299.954349 61.678925 423.312199 0l62.977429 162.962212s-302.551357 62.328177-561.602841 0z" fill="#8b5b8a" p-id="12658" data-spm-anchor-id="a313x.search_index.0.i20.beb23a81ex3YRL" class="selected"></path><path d="M336.447757 234.250063m-38.955111 0a38.95511 38.95511 0 1 0 77.910221 0 38.95511 38.95511 0 1 0-77.910221 0Z" fill="#FFFFFF" p-id="12659"></path><path d="M132.063278 705.866599a18.438752 18.438752 0 0 1-16.490997-26.619325L149.982628 610.296728c-18.179051-38.95511-4.414913-123.098149 3.116409-160.495054a18.438752 18.438752 0 1 1 36.098403 7.27162c-12.985037 62.847578-14.932792 129.850368-5.064165 139.199595a18.438752 18.438752 0 0 1 3.50596 21.29546l-38.95511 77.910221a18.438752 18.438752 0 0 1-16.620847 10.388029zM930.643039 1024a18.438752 18.438752 0 0 1-5.323865-35.968552c1.298504 0 127.383211-38.95511 176.077099-75.053512a18.438752 18.438752 0 1 1 22.074562 29.476033c-53.887903 40.513315-181.790515 79.208724-187.503931 80.766929a18.308902 18.308902 0 0 1-5.323865 0.779102z" p-id="12660"></path></svg>