<?xml version="1.0" standalone="no"?><!DOCTYPE svg PUBLIC "-//W3C//DTD SVG 1.1//EN" "http://www.w3.org/Graphics/SVG/1.1/DTD/svg11.dtd"><svg t="1719826137267" class="icon" viewBox="0 0 1024 1024" version="1.1" xmlns="http://www.w3.org/2000/svg" p-id="641" width="42" height="42" xmlns:xlink="http://www.w3.org/1999/xlink"><path d="M697.543111 85.319111h-521.102222c-77.098667 0-119.210667 89.927111-69.859556 149.162667l157.767111 189.297778a90.88 90.88 0 0 1 21.048889 58.24v304.952888a90.965333 90.965333 0 0 0 50.304 81.336889l121.244445 60.615111a90.453333 90.453333 0 0 0 40.632889 9.728c47.729778 0 90.993778-38.343111 90.993777-91.050666V482.019556c0-21.290667 7.452444-41.884444 21.048889-58.225778l157.781334-189.312c49.351111-59.235556 7.239111-149.162667-69.859556-149.162667m0 85.333333c1.749333 0 3.555556 0 5.077333 3.242667 1.521778 3.214222 0.355556 4.622222-0.768 5.944889L544.085333 369.166222a176.583111 176.583111 0 0 0-40.846222 112.853334v365.582222c0 5.304889-5.603556 5.717333-5.660444 5.717333a5.290667 5.290667 0 0 1-2.460445-0.711111l-121.258666-60.615111a5.617778 5.617778 0 0 1-3.128889-5.020445V482.019556c0-41.159111-14.478222-81.237333-40.832-112.853334L172.145778 179.84c-1.137778-1.322667-2.289778-2.730667-0.768-5.944889 1.507556-3.242667 3.313778-3.242667 5.063111-3.242667h521.102222M654.222222 838.997333a42.666667 42.666667 0 0 1 42.666667-42.666666h199.111111a42.666667 42.666667 0 0 1 0 85.333333H696.888889a42.666667 42.666667 0 0 1-42.666667-42.666667" fill="#000000" p-id="642"></path><path d="M654.222222 668.330667a42.666667 42.666667 0 0 1 42.666667-42.666667h199.111111a42.666667 42.666667 0 0 1 0 85.333333H696.888889a42.666667 42.666667 0 0 1-42.666667-42.666666M654.222222 497.664a42.666667 42.666667 0 0 1 42.666667-42.666667h199.111111a42.666667 42.666667 0 0 1 0 85.333334H696.888889a42.666667 42.666667 0 0 1-42.666667-42.666667" fill="#000000" p-id="643"></path></svg>