<?xml version="1.0" standalone="no"?><!DOCTYPE svg PUBLIC "-//W3C//DTD SVG 1.1//EN" "http://www.w3.org/Graphics/SVG/1.1/DTD/svg11.dtd"><svg t="1717772978684" class="icon" viewBox="0 0 1024 1024" version="1.1" xmlns="http://www.w3.org/2000/svg" p-id="10373" width="50" height="50" xmlns:xlink="http://www.w3.org/1999/xlink"><path d="M43.58940025 163.4406535h919.05759514v697.16532629H43.58940025z" fill="#ED8F27" p-id="10374"></path><path d="M962.64699539 872.87789991H43.58940025l-12.27192009-12.27192012V163.44188068l12.27192009-12.27192008h919.05759514l12.27192011 12.27192008v697.16532632l-12.27192011 12.27069291z m-906.78567505-24.54384022h894.51375496V175.71380077H55.86132034v672.62025892z" fill="#300604" p-id="10375"></path><path d="M107.10885866 225.56970339h797.79016234v561.58269867H107.10885866z" fill="#FCE3C3" p-id="10376"></path><path d="M678.05994116 928.27089283l59.75320615-34.6939453 41.85461068 44.96676962-3.41895693-199.22848681-100.873956-5.68558059z" fill="#228E9D" p-id="10377"></path><path d="M738.05490415 691.98243454m-62.68005909 0a62.68005907 62.68005907 0 1 0 125.36011818 0 62.68005907 62.68005907 0 1 0-125.36011818 0Z" fill="#B12800" p-id="10378"></path><path d="M50.08738194 865.46197858a11.83994852 11.83994852 0 0 1-11.84608448-11.84608448V169.36185493a11.83872132 11.83872132 0 0 1 7.31161001-10.94287113 11.8546748 11.8546748 0 0 1 12.91005993 2.56851286l54.61740758 54.61740758a11.84363009 11.84363009 0 0 1 3.47049902 8.37558548v575.019224a11.84363009 11.84363009 0 0 1-3.47049902 8.3755855l-54.61740758 54.61740756a11.8424029 11.8424029 0 0 1-8.37558546 3.4692718z m11.84608446-667.50286824V825.01986591l30.92523866-30.92646582V228.88434897l-30.92523866-30.92523863zM951.70289709 865.46197858a11.8424029 11.8424029 0 0 1-8.37558549-3.47049901l-54.61740757-54.61740756a11.84363009 11.84363009 0 0 1-3.47049901-8.3755855V223.97926254a11.84363009 11.84363009 0 0 1 3.47049901-8.37558548l54.61740757-54.6174076a11.83994852 11.83994852 0 0 1 12.91005993-2.56851286 11.83749414 11.83749414 0 0 1 7.31161001 10.94287113v684.25526637a11.83749414 11.83749414 0 0 1-11.84608445 11.84608448z m-42.77132313-71.36857849l30.92523864 30.92646582V197.95911034l-30.92523864 30.92523863v565.20905112z" fill="#300604" p-id="10379"></path><path d="M897.08548949 235.82534699H104.70478952a11.85222044 11.85222044 0 0 1-8.37558548-3.470499l-54.61740755-54.61740755a11.84731166 11.84731166 0 0 1-2.56851287-12.91005997 11.8546748 11.8546748 0 0 1 10.94287115-7.31160999H951.70289709a11.84485727 11.84485727 0 0 1 8.37435823 20.22166996l-54.61740756 54.61740755a11.84731166 11.84731166 0 0 1-8.37435827 3.470499z m-787.4756135-23.69216893h782.57052702l30.92523866-30.92523866H78.68463736l30.92523863 30.92523866zM689.90479846 865.46197858H50.08738194a11.84608447 11.84608447 0 0 1-8.37435827-20.22044274l54.61740759-54.61740758a11.84976605 11.84976605 0 0 1 8.37558546-3.47049901H689.90602563c6.53970621 0 11.84608447 5.30269668 11.84608446 11.84608447v54.61740759c-0.00122716 6.5433878-5.30760542 11.84485727-11.84731163 11.84485727zM78.68463736 841.77103683h599.3753038v-30.92523863H109.60987599l-30.92523863 30.92523863zM951.70289709 865.46197858H773.76741882c-6.53970621 0-11.84608447-5.30146949-11.84608448-11.84608448v-54.61740759c0-6.5433878 5.30637824-11.84608447 11.84608448-11.84608445h123.31807067a11.85222044 11.85222044 0 0 1 8.37558547 3.47049901l54.61740758 54.6174076a11.84608447 11.84608447 0 0 1-8.37558545 20.22166991zM785.61350329 841.77103683h137.49336557l-30.92523865-30.92523863H785.61473047v30.92523863z" fill="#300604" p-id="10380"></path><path d="M897.08548949 810.84457099H773.76741882c-6.53970621 0-11.84608447-5.30269668-11.84608448-11.84608448v-60.93376483a11.86449235 11.86449235 0 0 1 3.93437759-8.81860179c10.84346859-9.72058793 17.05919612-23.62958214 17.05919612-38.15585394 0-28.17632854-22.912902-51.10027529-51.06959548-51.1002753-28.17141977 0-51.09291214 22.92394675-51.09291213 51.1002753a51.16654362 51.16654362 0 0 0 17.04324265 38.10185751 11.82399501 11.82399501 0 0 1 3.956467 8.83332807v60.97303498c0 6.5433878-5.30637824 11.84608447-11.84608446 11.84608448H104.70478952c-6.53970621 0-11.84608447-5.30269668-11.84608446-11.84608448V223.97926254c0-6.5433878 5.30637824-11.84608447 11.84608446-11.84608448h792.37947278c6.53970621 0 11.84608447 5.30269668 11.84608448 11.84608448v575.01922397c0.00122716 6.54461498-5.30515107 11.84608447-11.84485729 11.84608448z m-111.4719862-23.69094174h99.62590173v-551.32828226h-768.68853102v551.32828226h561.50783998v-44.09423609a74.89920993 74.89920993 0 0 1-21.00093686-51.96790004c0-41.24101466 33.54897516-74.79244421 74.78508107-74.79244422 41.22260681 0 74.76176442 33.55142953 74.76176441 74.79244422 0 19.41908637-7.5889554 38.0748593-20.99234652 51.99612546v44.06601067z" fill="#300604" p-id="10381"></path><path d="M315.57932854 298.53363147h360.3207547v23.69216895H315.57932854zM186.36214587 510.37887935h615.26130437v23.69216894H186.36214587zM186.36214587 564.11639027h615.26130437v23.69216895H186.36214587zM186.36214587 679.24540863h160.45903681v23.69216896H186.36214587zM407.17694011 679.24540863h160.46026403v23.69216896H407.17694011zM719.21873397 764.8150531l-2.25189733-0.42460843c-1.65057328-0.34238659-2.69982241-0.57064428-3.67175847-0.84798968l6.5397062-22.77422931c0.41724529 0.12271919 0.87989669 0.20494106 1.32659457 0.29698047l2.42124982 0.46633297-4.36389479 23.28351398zM743.78343645 764.92672757l-2.94648802-23.50686292 6.72501219 22.77422928c-1.19528501 0.3239787-2.49119979 0.57064428-3.77852417 0.73263364z" fill="#300604" p-id="10382"></path><path d="M773.76741882 940.11697728a11.82276783 11.82276783 0 0 1-5.96906193-1.61621186l-35.9542715-20.97762021-35.96899783 20.98130179a11.84608447 11.84608447 0 1 1-17.8151464-10.23478134V738.02667873a11.84731166 11.84731166 0 0 1 19.75901857-8.81492019 49.22880749 49.22880749 0 0 0 11.22021653 7.57791064c2.05186503 1.07133862 4.08041345 1.92423708 6.47098347 2.73786539 1.07133862 0.36938482 2.12058779 0.69704504 3.18456326 0.97561765 0.37061197 0.06994993 0.72527047 0.14971742 1.04065882 0.23930242 0.50928468 0.1386727 1.07992895 0.25034721 1.65057328 0.37061199l2.19790091 0.41969967c5.3910545 0.86762475 10.94409835 0.90934926 16.81989364-0.05031489l3.88651711-0.82099145c1.13392541-0.27366383 2.36725337-0.58168903 3.52449544-1.01366061 6.8796384-2.30221221 12.8253837-5.76534806 18.08512866-10.43849522 3.49381566-3.09252386 8.48357836-3.85951886 12.7173908-1.9475537a11.84485727 11.84485727 0 0 1 6.99499443 10.80542564v190.20617116a11.84853887 11.84853887 0 0 1-5.94574528 10.2728243 11.8546748 11.8546748 0 0 1-5.89911198 1.57080575z m-72.0165359-180.54571563v148.07666943l24.12414053-14.07466511a11.84853887 11.84853887 0 0 1 11.93812386 0.00368156l24.10818703 14.067302V759.58966952a73.46707685 73.46707685 0 0 1-6.19977402 2.38320689c-1.6432101 0.62464074-3.81779433 1.2259648-5.99974173 1.74629423l-5.22906516 1.09588246c-8.9376394 1.46526726-16.53395794 1.43090588-24.98808372 0.05031488l-2.53660588-0.47492331a68.64421226 68.64421226 0 0 1-2.98453094-0.66759246 12.50754097 12.50754097 0 0 1-0.709317-0.15339899 65.43019638 65.43019638 0 0 1-5.46836759-1.63830134 71.96867542 71.96867542 0 0 1-6.05496538-2.35989023z" fill="#300604" p-id="10383"></path><path d="M731.84408539 765.89866365c-3.97119337 0-8.12891987-0.34729535-12.33941568-1.03329567l-2.53660588-0.47492331a61.63203712 61.63203712 0 0 1-3.0238011-0.6749556 11.59082854 11.59082854 0 0 1-0.9400291-0.21598581 136.67237411 136.67237411 0 0 1-4.17981596-1.24559986c-0.1079929-0.03436139-0.87130631-0.27366383-0.97929923-0.3092524a72.83384575 72.83384575 0 0 1-9.39415483-3.96383019 74.49300938 74.49300938 0 0 1-15.38530623-10.28877782 10.90973696 10.90973696 0 0 1-1.04924915-0.83203618 74.85380382 74.85380382 0 0 1-24.9574039-55.77096807c0-41.24101466 33.54897516-74.79244421 74.78508106-74.79244422 41.22260681 0 74.76176442 33.55142953 74.76176441 74.79244422 0 21.24637526-9.08367526 41.57971966-24.92549692 55.79305751-0.42460844 0.37797514-0.87130631 0.72527047-1.3351849 1.03329569-7.32633629 6.26113363-15.57797537 10.98214129-24.56347529 14.035395-2.05186503 0.6786372-4.02641699 1.27996126-6.06232849 1.7659293l-2.62987248 0.59027938c-0.73263363 0.20739546-2.02118525 0.45528824-3.30850968 0.61727756a74.42674101 74.42674101 0 0 1-11.93689665 0.97439047z m-12.99473619-25.36605882c0.31661554 0.0613596 0.61727757 0.13499113 0.89462297 0.2086226 0.50928468 0.14971742 0.97193608 0.23193927 1.41863394 0.32397872l2.36725342 0.45528823c5.49904739 0.89094141 10.99809479 0.9216212 16.87389011-0.03804297 0.15462619-0.04172452 1.29591476-0.24298403 1.45790411-0.27734539l2.428613-0.54364606c1.27996126-0.30802519 2.62128213-0.72527047 3.94910389-1.16828676 6.40839667-2.17949302 12.37009544-5.68435338 17.62984039-10.38940756 0.33993222-0.30066205 0.68722752-0.57800744 1.04924917-0.8320362 10.17955772-9.66659147 15.99399347-23.13625095 15.99399348-37.18023632 0-28.17632854-22.912902-51.10027529-51.06959549-51.10027528-28.17141977 0-51.09291214 22.92394675-51.09291214 51.10027528a51.15427172 51.15427172 0 0 0 16.16457315 37.29559238c0.31538835 0.23193927 0.62464074 0.48596804 0.9253028 0.75226869a51.03277972 51.03277972 0 0 0 11.28280333 7.69694828 49.74177374 49.74177374 0 0 0 6.38630719 2.69245927c1.28118846 0.39147425 2.3218473 0.71545295 3.34041668 1.00384309z" fill="#300604" p-id="10384"></path><path d="M186.36214587 365.26096983v115.89969495l96.3689341-57.03252144zM305.13347013 365.26096983h58.39347738v115.89969495h-58.39347738z" fill="#B12800" p-id="10385"></path><path d="M452.53518398 423.52804646m-58.26707662 0a58.2670766 58.2670766 0 1 0 116.53415325 0 58.2670766 58.2670766 0 1 0-116.53415325 0Z" fill="#B12800" p-id="10386"></path><path d="M534.93499147 377.43471455h103.72595021v103.72595023h-103.72595021zM672.19273618 481.16066478l32.071436-103.72595023 35.87327682 31.0725017 36.91761722-31.0725017 23.83084161 103.72595023z" fill="#B12800" p-id="10387"></path></svg>