<?xml version="1.0" standalone="no"?><!DOCTYPE svg PUBLIC "-//W3C//DTD SVG 1.1//EN" "http://www.w3.org/Graphics/SVG/1.1/DTD/svg11.dtd"><svg t="1716883184905" class="icon" viewBox="0 0 1137 1024" version="1.1" xmlns="http://www.w3.org/2000/svg" p-id="31487" xmlns:xlink="http://www.w3.org/1999/xlink" width="66.62109375" height="60"><path d="M534.721393 18.805127a93.519358 93.519358 0 0 1 56.885254-18.772134 99.890507 99.890507 0 0 1 102.393459 97.273786v97.842638a49.14886 49.14886 0 0 0 45.508203 48.921318h301.491849A98.240835 98.240835 0 0 1 1137.705091 341.344521v341.311527a98.240835 98.240835 0 0 1-96.704933 97.273785H739.508309a49.14886 49.14886 0 0 0-45.508203 48.921319v97.842638A99.890507 99.890507 0 0 1 591.606647 1023.967575a93.519358 93.519358 0 0 1-56.885254-18.772134L34.131153 598.465871a126.569691 126.569691 0 0 1 0-172.931173z" fill="#382f26" p-id="31488"></path></svg>