<?xml version="1.0" standalone="no"?><!DOCTYPE svg PUBLIC "-//W3C//DTD SVG 1.1//EN" "http://www.w3.org/Graphics/SVG/1.1/DTD/svg11.dtd"><svg t="1716900298975" class="icon" viewBox="0 0 1024 1024" version="1.1" xmlns="http://www.w3.org/2000/svg" p-id="13734" xmlns:xlink="http://www.w3.org/1999/xlink" width="50" height="50"><path d="M959.106091 188.408309h-152.308133l-0.480695 7.414716v-58.043891H510.287408v668.273864H607.718225c-1.23178-20.177162-14.613121-36.088159-31.064898-36.088158h5.636146a22.526558 22.526558 0 0 0 22.508532-22.508532 22.532567 22.532567 0 0 0-22.508532-22.484497h-16.193405v-53.453257h5.317686c17.623471 0 31.870062-13.693792 33.137895-30.992794 85.611736-26.26396 153.539913-84.31386 183.985917-144.725173 184.496655-97.334679 170.568525-307.392278 170.568525-307.392278z m-152.788828 225.055275V243.76031h91.920855c0-0.006009-16.932473 122.823518-91.920855 169.703274z" fill="#9d592f" p-id="13735" data-spm-anchor-id="a313x.search_index.0.i35.40193a81Z1BOv3" class=""></path><path d="M210.015421 137.779134v40.324281H58.296139S45.209224 381.587513 220.963244 480.742824c25.84936 64.905809 96.523507 129.823636 187.777397 158.815538a33.306138 33.306138 0 0 0 33.264077 31.960192h11.596761v53.453257h-22.508532a22.484497 22.484497 0 0 0-22.484497 22.484497 22.484497 22.484497 0 0 0 22.484497 22.508532h11.951273c-16.457787 0-29.809083 15.898979-31.034855 36.088158h98.272034V137.779134H210.015421z m0 264.53834c-74.014975-47.390494-90.785213-168.886093-90.785213-168.886093h90.785213v168.886093zM162.204319 76.388405h696.160169v61.38472H162.204319z" fill="#ba6e40" p-id="13736" data-spm-anchor-id="a313x.search_index.0.i33.40193a81Z1BOv3" class=""></path><path d="M508.737167 249.336369l42.493416 64.551297 74.501678 20.477596-48.237718 60.339209 3.533106 77.193569-72.290482-27.213332-72.362587 27.213332 3.593194-77.193569-48.23171-60.339209 74.471635-20.477596z" fill="#703d1f" p-id="13737" data-spm-anchor-id="a313x.search_index.0.i39.40193a81Z1BOv3" class="selected"></path><path d="M355.521723 979.734022v-110.39155h153.179392v-30.482057H273.707476v171.355663h234.993639v-30.482056z" fill="#2C4351" p-id="13738"></path><path d="M745.287055 838.860415H508.701115v30.482057h154.771693v110.39155H508.701115v30.482056h236.58594z" fill="#2B3C44" p-id="13739"></path><path d="M355.521723 869.342472h153.179392v110.39155H355.521723z" fill="#5A707B" p-id="13740"></path><path d="M508.701115 869.342472h154.771693v110.39155H508.701115z" fill="#536675" p-id="13741"></path><path d="M684.491186 806.052998H508.701115v32.807417h175.790071a16.391691 16.391691 0 0 0 16.3977-16.397699 16.373665 16.373665 0 0 0-16.3977-16.409718z" fill="#929996" p-id="13742"></path><path d="M332.947095 806.052998a16.421735 16.421735 0 0 0-16.451778 16.409718 16.439761 16.439761 0 0 0 16.451778 16.397699h175.75402v-32.807417h-175.75402z" fill="#9DA8A4" p-id="13743"></path><path d="M243.573923 190.439244l-20.087032-20.075014L393.80906 0.012017l20.117075 20.044972zM256.041943 202.919282l-2.872151-2.920221L423.473935 29.634832l2.920221 2.92022zM289.798732 236.706114l-8.652505-8.724609L451.49243 57.635301 460.174979 66.335876z" fill="#FFFFFF" p-id="13744"></path><path d="M25.482713 336.955005l-20.020936-20.09304 172.293017-172.317052 20.093041 20.05098zM37.590212 349.1286l-2.884168-2.908203 173.032085-171.620045 2.884169 2.914212z" fill="#FFFFFF" p-id="13745"></path></svg>