<?xml version="1.0" standalone="no"?><!DOCTYPE svg PUBLIC "-//W3C//DTD SVG 1.1//EN" "http://www.w3.org/Graphics/SVG/1.1/DTD/svg11.dtd"><svg t="1716441457872" class="icon" viewBox="0 0 1024 1024" version="1.1" xmlns="http://www.w3.org/2000/svg" p-id="6019" width="80" height="80" xmlns:xlink="http://www.w3.org/1999/xlink"><path d="M752.64 995.328h-80.384c-47.104 0-85.504-38.4-85.504-85.504v-187.392c0-2.048-1.536-3.584-3.584-3.584H446.464c-2.048 0-3.584 1.536-3.584 3.584v187.392c0 47.104-38.4 85.504-85.504 85.504H281.6c-78.848 0-143.36-64-143.36-143.36v-283.136c0-2.048-1.536-3.584-3.584-3.584-34.816 0-66.048-20.992-79.36-53.248-13.312-32.256-5.632-69.12 18.944-93.696l380.416-373.76c33.28-32.768 87.04-32.768 120.32 0l379.904 374.272c25.088 24.576 32.256 60.928 18.944 93.696-13.312 32.256-44.544 53.248-79.36 53.248-22.528 0-40.96-18.432-40.96-40.96s18.432-40.96 40.96-40.96c1.024 0 2.56 0 3.584-2.048s0-3.072-1.024-4.096L517.12 102.912c-1.536-1.536-3.584-1.536-5.12 0L132.096 477.184c-0.512 0.512-1.536 1.536-1.024 4.096 1.024 2.048 2.56 2.048 3.584 2.048 47.104 0 85.504 38.4 85.504 85.504v283.136c0 33.792 27.648 61.44 61.44 61.44h75.776c2.048 0 3.584-1.536 3.584-3.584v-187.392c0-47.104 38.4-85.504 85.504-85.504h136.192c47.104 0 85.504 38.4 85.504 85.504v187.392c0 2.048 1.536 3.584 3.584 3.584H752.64c31.232 0 56.32-25.6 56.32-56.32v-185.344c0-22.528 18.432-40.96 40.96-40.96s40.96 18.432 40.96 40.96v185.344c0 76.288-61.952 138.24-138.24 138.24z" fill="#dbdbdb" p-id="6020"></path></svg>